<svg xmlns="http://www.w3.org/2000/svg" height="48" width="155"><defs><style>.cls-1{fill:#80c28f}</style></defs><path class="cls-1" d="M0 0v48h48V0zm29.66 6.32l3.66 2.56-10.53 1.86-.82-3.06zm-5.22 35.37l-10.11-14.3 3.55-.47 9.56 13.51zm-2.69-15.27l3.14-.41 2.44 13.83-4.37-6.58zm-7.61.71l1.43-3.46 5.52-1-2-11.3 2.56-3.66 2.58 14.42 5.52-1 .55 3.11zm16.61-14.58l-.45-2.53 3.07-.82.49 2.8z"/><g><path class="cls-1" d="M1062.83 471.56c-5.06 0-8.33-3.77-8.33-9.61v-.47c0-5.65 3.27-9.45 8.14-9.45a7.53 7.53 0 0 1 5.77 2.48 10.52 10.52 0 0 1 2.37 7.18v.69h-13.43v.38c0 4.07 2.75 5.89 5.48 5.89a7 7 0 0 0 4.39-1.53l1.53 2.22a9 9 0 0 1-5.92 2.22zm-.19-16.8c-2.93 0-4.59 1.5-5.08 4.57v.3h10.28v-.3c-.49-3.07-2.15-4.56-5.08-4.57z" transform="translate(-915.77 -432.4)"/><path data-name="e" class="cls-1" d="M1043.36 471.69c-5.14 0-8.46-3.82-8.46-9.74v-.47c0-5.73 3.32-9.58 8.27-9.58a7.66 7.66 0 0 1 5.87 2.52 10.65 10.65 0 0 1 2.4 7.26v.82H1038v.25c0 4 2.69 5.76 5.36 5.76a6.93 6.93 0 0 0 4.42-1.59l1.67 2.42a9.11 9.11 0 0 1-6.09 2.35zm-.19-16.8c-2.9 0-4.47 1.43-5 4.46v.15h10v-.15c-.48-3-2.06-4.45-5-4.46z" transform="translate(-915.77 -432.4)"/><path data-name="e" class="cls-1" d="M1031.91 462.63v-.95c0-6.38-3.69-9.91-8.39-9.91-5 0-8.39 3.93-8.39 9.71v.52c0 6.09 3.5 9.87 8.59 9.87a9.13 9.13 0 0 0 6.26-2.47l-1.81-2.63a6.79 6.79 0 0 1-4.45 1.65c-2.78 0-5.23-1.93-5.23-5.63v-.12zm-8.39-7.6c3.25 0 4.44 1.91 4.83 4.35h-9.68c.41-2.45 1.6-4.38 4.85-4.38z" transform="translate(-915.77 -432.4)"/><path class="cls-1" d="M1011.36 467.66a2.06 2.06 0 0 1-1.59.59 1.86 1.86 0 0 1-2-1.64v-25.28h-3.47v25.09a5.5 5.5 0 0 0 5.49 5.49 5.44 5.44 0 0 0 3.63-1.37z" transform="translate(-915.77 -432.4)"/><g><path class="cls-1" d="M79.63 19.35h3.47v19.72h-3.47zM79.63 10.16h3.47v4.91h-3.47z"/></g><path data-name="f" class="cls-1" d="M985.7 440.88a7.08 7.08 0 0 0-7.07 7v23.61h3.47v-16.28h6.9v-3.47h-6.9v-3.79a3.6 3.6 0 0 1 7.13-.7l3.42-.6a7.07 7.07 0 0 0-6.95-5.77z" transform="translate(-915.77 -432.4)"/></g></svg>